<svg width="142" height="38" viewBox="0 0 142 38" fill="none" xmlns="http://www.w3.org/2000/svg">
<path d="M131.344 23.0206H135.597L141.977 36.8795H137.895L136.734 34.0307L133.476 26.1576L130.098 34.0307L128.85 36.8795H124.914L131.344 23.0206Z" fill="white"/>
<mask id="mask0_154_584" style="mask-type:luminance" maskUnits="userSpaceOnUse" x="129" y="32" width="8" height="3">
<path d="M129.347 34.811H136.377V32.127H129.347V34.811Z" fill="white"/>
</mask>
<g mask="url(#mask0_154_584)">
<path fill-rule="evenodd" clip-rule="evenodd" d="M99.1858 57.4515C99.1858 57.4515 107.166 29.9114 136.05 32.7084C117.709 35.5265 99.1858 57.4515 99.1858 57.4515Z" fill="white"/>
</g>
<path d="M34.1753 23.063H38.123L45.2984 32.7376V23.063H48.8061V36.9219H45.0407L37.683 27.0778V36.9219H34.1753V23.063Z" fill="white"/>
<mask id="mask1_154_584" style="mask-type:luminance" maskUnits="userSpaceOnUse" x="0" y="0" width="142" height="38">
<path d="M0.348145 37.6561H142V0.398941H0.348145V37.6561Z" fill="white"/>
</mask>
<g mask="url(#mask1_154_584)">
<path d="M63.706 23.063H69.121V36.9219H65.6133V27.5473C65.6133 27.2778 65.6169 26.9025 65.6251 26.42C65.6334 25.9305 65.6369 25.554 65.6369 25.2916L62.2269 36.9219H58.5721L55.1868 25.2916C55.1868 25.554 55.1903 25.9305 55.1986 26.42C55.2068 26.9025 55.2104 27.2778 55.2115 27.5473V36.9219H51.7039V23.063H57.1789L60.4548 33.9602L63.706 23.063Z" fill="white"/>
<path d="M84.6118 25.517H75.0784V28.6705H83.8293V31.078H75.0784V34.4303H85.0519V36.9213H71.3989V23.0624H84.6118V25.517Z" fill="white"/>
<path fill-rule="evenodd" clip-rule="evenodd" d="M90.312 25.47V34.5151H93.7832C95.5588 34.5151 96.7978 33.8409 97.4991 32.4936C97.8815 31.7535 98.0733 30.8733 98.0733 29.8508C98.0733 28.4411 97.7839 27.3598 97.205 26.6079C96.6354 25.8489 95.4941 25.47 93.7832 25.47H90.312ZM97.205 23.3638C98.4687 23.6838 99.4912 24.2698 100.274 25.1217C100.901 25.8113 101.328 26.5573 101.556 27.3598C101.785 28.1623 101.899 28.9271 101.899 29.6543C101.899 31.497 101.419 33.0572 100.457 34.3363C99.1524 36.0601 97.1402 36.9214 94.4186 36.9214H86.6572V23.0626H94.4186C95.5352 23.0755 96.4636 23.1755 97.205 23.3638Z" fill="white"/>
<path d="M107.517 36.9219H103.778V23.063H107.517V36.9219Z" fill="white"/>
<path d="M112.11 24.511C113.576 23.3708 115.442 22.8001 117.707 22.8001C120.739 22.8001 122.955 23.5649 124.357 25.0934C125.131 25.9524 125.546 26.8149 125.604 27.6797H121.838C121.595 27.0149 121.281 26.5137 120.898 26.1748C120.213 25.5735 119.199 25.2723 117.854 25.2723C116.486 25.2723 115.406 25.6994 114.615 26.5513C113.824 27.3973 113.43 28.5976 113.43 30.1519C113.43 31.7063 113.845 32.8724 114.676 33.6502C115.516 34.4209 116.579 34.8057 117.866 34.8057C119.186 34.8057 120.192 34.4739 120.885 33.8091C121.268 33.4525 121.587 32.916 121.838 32.2017H125.567C125.24 33.7126 124.406 34.941 123.061 35.8871C121.724 36.8343 120.01 37.3073 117.915 37.3073C115.324 37.3073 113.286 36.6684 111.804 35.3893C110.321 34.1044 109.58 32.3429 109.58 30.1049C109.58 27.6856 110.422 25.8206 112.11 24.511Z" fill="white"/>
<path fill-rule="evenodd" clip-rule="evenodd" d="M4.17438 25.47V28.5259H8.59868C9.38941 28.5259 10.0283 28.4129 10.5178 28.187C11.0144 27.9552 11.2627 27.548 11.2639 26.9644C11.2639 26.3196 10.9367 25.8936 10.286 25.6865C9.72358 25.5418 9.00581 25.47 8.13507 25.47H4.17438ZM4.17438 30.8192V34.5151H8.59868C9.38941 34.5151 10.0036 34.434 10.4449 34.2704C11.2427 33.9692 11.6416 33.3926 11.6427 32.5407C11.6427 31.8194 11.2556 31.324 10.4814 31.0545C10.0495 30.9039 9.44236 30.8263 8.65987 30.8192H4.17438ZM14.0255 24.5393C14.5797 25.1288 14.8562 25.8336 14.8574 26.6549C14.8574 27.501 14.5797 28.1811 14.0255 28.6953C13.716 28.9836 13.2595 29.2472 12.657 29.4849C13.5772 29.7414 14.2703 30.1497 14.735 30.7074C15.2069 31.2652 15.4434 31.9418 15.4434 32.7384C15.4434 33.5585 15.1751 34.2951 14.6374 34.947C14.295 35.38 13.8667 35.7436 13.3536 36.0378C12.7747 36.3766 12.0899 36.6085 11.3003 36.7332C10.5178 36.8591 9.66593 36.9214 8.74577 36.9214H0.580811V23.0626H9.33175C11.5404 23.0884 13.1053 23.5803 14.0255 24.5393Z" fill="white"/>
<path d="M21.9809 23.063H26.2346L32.6145 36.9219H28.5326L27.3712 34.0731L24.113 26.2L20.7336 34.0731L19.4875 36.9219H15.5515L21.9809 23.063Z" fill="white"/>
</g>
<mask id="mask2_154_584" style="mask-type:luminance" maskUnits="userSpaceOnUse" x="19" y="32" width="9" height="3">
<path d="M19.9832 34.8532H27.0126V32.1692H19.9832V34.8532Z" fill="white"/>
</mask>
<g mask="url(#mask2_154_584)">
<path fill-rule="evenodd" clip-rule="evenodd" d="M-10.1772 57.4941C-10.1772 57.4941 -2.19703 29.954 26.6868 32.7509C8.34599 35.5691 -10.1772 57.4941 -10.1772 57.4941Z" fill="white"/>
</g>
<mask id="mask3_154_584" style="mask-type:luminance" maskUnits="userSpaceOnUse" x="0" y="0" width="142" height="38">
<path d="M0.348145 37.6561H142V0.398941H0.348145V37.6561Z" fill="white"/>
</mask>
<g mask="url(#mask3_154_584)">
<path d="M38.0458 8.42584V7.65394H35.0205V4.80403H37.8398V4.03213H35.0205V1.4811H38.0246V0.7092H34.1663V8.42584H38.0458Z" fill="white"/>
<path d="M46.6377 6.71792C46.5448 7.09916 46.4942 7.47923 46.4424 7.86988H46.4212C46.38 7.37686 46.3388 7.05798 46.2565 6.72851L44.7445 0.70981H43.2324V8.42645H44.0855V2.0877C44.0855 1.75823 44.0655 1.41935 44.0655 1.08988H44.0855C44.1785 1.5123 44.2408 1.76882 44.3126 2.03592L45.9282 8.42645H46.946L48.5616 2.12888C48.6334 1.83118 48.7063 1.5429 48.7981 1.08988H48.8193C48.8393 1.41935 48.8193 1.73823 48.8193 2.06769V8.42645H49.6724V0.70981H48.1709L46.6377 6.71792Z" fill="white"/>
<path fill-rule="evenodd" clip-rule="evenodd" d="M56.0925 1.48079H56.9774C58.0164 1.45961 58.8083 1.63494 58.8083 2.87986C58.8189 4.20715 58.0988 4.37189 56.9256 4.38248H56.0925V1.48079ZM56.0925 8.42554V5.15438H56.6068C57.1939 5.15438 58.0682 5.15438 58.6024 4.92728C59.4367 4.54721 59.6932 3.71413 59.6932 2.85986C59.6932 2.2421 59.5296 1.64553 59.066 1.21369C58.613 0.780672 57.8623 0.708895 57.2657 0.708895H55.2383V8.42554H56.0925Z" fill="white"/>
<path fill-rule="evenodd" clip-rule="evenodd" d="M65.7117 1.48079H66.9154C67.492 1.48079 68.531 1.51139 68.551 2.83868C68.5722 4.18715 67.4602 4.24834 67.059 4.25893H65.7117V1.48079ZM65.7117 5.03083H67.2037C68.2121 5.03083 68.5204 5.68859 68.5204 6.46049C68.5204 6.9747 68.6028 7.93133 68.7875 8.42554H69.7865V8.25139C69.5806 8.25139 69.5182 7.91133 69.4876 7.76778C69.4053 7.1912 69.3535 6.62522 69.3229 6.04865C69.1994 5.02024 68.9523 4.70136 67.9544 4.6084V4.5884C68.8499 4.46485 69.4053 3.8165 69.4359 2.91163C69.4876 1.13132 68.4592 0.708895 66.8437 0.708895H64.8574V8.42554H65.7117V5.03083Z" fill="white"/>
<path d="M78.7982 8.42584V7.65394H75.773V4.80403H78.5923V4.03213H75.773V1.4811H78.7782V0.7092H74.9187V8.42584H78.7982Z" fill="white"/>
<path d="M88.1718 2.73618C88.2542 1.28534 87.3894 0.554626 85.9809 0.554626C84.7254 0.554626 83.8299 1.38771 83.8299 2.66441C83.8299 3.42572 84.0146 4.04229 84.7454 4.41295C85.1572 4.62946 85.8361 4.84479 86.2586 5.00952C87.0399 5.3084 87.5129 5.31899 87.5129 6.49096C87.5129 7.397 86.9069 7.83943 86.0421 7.83943C84.756 7.83943 84.5394 7.1193 84.5806 5.97675H83.7275C83.737 6.38859 83.7275 7.00634 83.8911 7.38641C84.3335 8.39482 85.2396 8.61133 86.0009 8.61133C87.4823 8.61133 88.3978 7.75706 88.3978 6.29563C88.3978 5.2778 88.1307 4.76242 86.6692 4.21762L85.4455 3.75519C84.9513 3.56927 84.7148 3.2398 84.7148 2.70559C84.7148 2.10902 84.8489 1.32653 86.0938 1.32653C86.9469 1.32653 87.3799 1.93369 87.3176 2.73618H88.1718Z" fill="white"/>
<path fill-rule="evenodd" clip-rule="evenodd" d="M92.9346 8.42584H93.8806L94.4466 6.2031H96.8858L97.493 8.42584H98.4391L96.2681 0.7092H95.1361L92.9346 8.42584ZM96.6905 5.43238H94.6525L95.6715 1.32696H95.6915L96.6905 5.43238Z" fill="white"/>
<path d="M107.41 2.73618C107.493 1.28534 106.628 0.554626 105.219 0.554626C103.964 0.554626 103.068 1.38771 103.068 2.66441C103.068 3.42572 103.253 4.04229 103.984 4.41295C104.396 4.62946 105.075 4.84479 105.497 5.00952C106.278 5.3084 106.751 5.31899 106.751 6.49096C106.751 7.397 106.144 7.83943 105.281 7.83943C103.994 7.83943 103.778 7.1193 103.819 5.97675H102.965C102.975 6.38859 102.965 7.00634 103.13 7.38641C103.572 8.39482 104.478 8.61133 105.239 8.61133C106.721 8.61133 107.636 7.75706 107.636 6.29563C107.636 5.2778 107.369 4.76242 105.908 4.21762L104.684 3.75519C104.19 3.56927 103.953 3.2398 103.953 2.70559C103.953 2.10902 104.087 1.32653 105.332 1.32653C106.185 1.32653 106.618 1.93369 106.556 2.73618H107.41Z" fill="white"/>
<path fill-rule="evenodd" clip-rule="evenodd" d="M20.2295 19.314C20.2295 19.314 64.4043 2.46874 122.329 19.5117C64.2384 7.41902 20.2295 19.314 20.2295 19.314Z" fill="white"/>
</g>
</svg>
