<svg width="121" height="59" viewBox="0 0 121 59" fill="none" xmlns="http://www.w3.org/2000/svg">
<path d="M15.552 28.3232C14.1469 27.4532 12.7795 26.6365 11.4498 25.873C10.3862 25.1886 9.49374 24.5905 8.77235 24.0786C8.05096 23.5667 7.50103 23.0349 7.12257 22.4832C6.75056 21.9589 6.55136 21.3317 6.55271 20.6888C6.53288 19.9103 6.79601 19.1511 7.29331 18.5518C7.78817 17.9628 8.41179 17.4955 9.11601 17.1859C9.81395 16.8677 10.5718 16.7023 11.3389 16.7008C12.3641 16.7008 13.2279 16.8719 13.9305 17.2141C14.633 17.5564 15.0985 18.012 15.3269 18.5812C15.183 18.863 15.0686 19.1589 14.9854 19.4642C14.9102 19.7525 14.8736 20.0494 14.8766 20.3473C14.8794 21.0353 15.1442 21.6965 15.6172 22.1961C16.1102 22.7471 16.7559 23.0226 17.5541 23.0226C17.9284 23.0312 18.3001 22.9593 18.6442 22.8118C18.9883 22.6644 19.2967 22.4447 19.5486 22.1678C20.0743 21.6016 20.3371 20.8806 20.3371 20.0047C20.3466 19.425 20.2355 18.8497 20.0108 18.3152C19.7862 17.7807 19.4529 17.2987 19.0321 16.8998C18.1562 16.0451 17.0542 15.3791 15.726 14.9021C14.3721 14.4234 12.9456 14.1825 11.5097 14.1897C9.45858 14.1897 7.6638 14.5602 6.12531 15.3012C4.58682 16.0422 3.39997 17.0119 2.56475 18.2103C1.72518 19.4066 1.30721 20.6884 1.31083 22.0558C1.29155 23.1682 1.60925 24.2605 2.22218 25.189C2.82902 26.101 3.66279 26.937 4.72349 27.6968C5.78419 28.4566 6.98047 29.2353 8.31232 30.0328C9.41435 30.6788 10.478 31.3244 11.5031 31.9697C12.4345 32.5392 13.2868 33.2288 14.0381 34.0208C14.703 34.7458 15.0354 35.5625 15.0354 36.471C15.0354 37.9145 14.5892 39.0727 13.6967 39.9456C12.8042 40.8185 11.3926 41.2554 9.46184 41.2561C8.55205 41.2483 7.65591 41.0341 6.8409 40.6297C5.96653 40.2121 5.39667 39.6614 5.13131 38.9777C5.27442 38.6955 5.38882 38.3997 5.47279 38.0946C5.54682 37.8253 5.58521 37.5474 5.58698 37.2681C5.59977 36.5426 5.33483 35.8396 4.84638 35.303C4.35047 34.7527 3.68454 34.4775 2.84859 34.4775C2.46815 34.4715 2.09085 34.5472 1.7421 34.6993C1.39335 34.8514 1.08127 35.0766 0.826883 35.3595C0.27587 35.949 0.00036376 36.7182 0.00036376 37.6672C-0.0151509 38.9206 0.466166 40.1292 1.33911 41.0288C2.23088 41.9786 3.40831 42.7003 4.87139 43.1941C6.35051 43.6917 7.90125 43.9434 9.46184 43.939C11.626 43.939 13.5346 43.5765 15.1877 42.8515C16.8407 42.1265 18.1417 41.1201 19.0908 39.8325C20.0307 38.5645 20.5295 37.0237 20.5111 35.4454C20.5111 33.8504 20.0366 32.4826 19.0875 31.3422C18.0779 30.1534 16.8843 29.1341 15.552 28.3232Z" fill="#F3F6F9"/>
<path d="M50.3659 26.7278C50.3659 24.0699 49.8816 21.8002 48.913 19.9188C47.9444 18.0374 46.6245 16.6131 44.9533 15.6459C43.2821 14.6773 41.4206 14.193 39.3688 14.193C36.4434 14.193 33.9174 14.9622 31.791 16.5007C29.6645 18.0392 28.0332 20.0903 26.8971 22.6539C25.7574 25.2183 25.1875 28.0387 25.1875 31.1149C25.1875 33.4705 25.5863 35.626 26.3838 37.5813C27.1813 39.5367 28.4062 41.0846 30.0585 42.2251C31.7087 43.3677 33.7869 43.939 36.2933 43.939C39.2557 43.939 41.7817 43.1415 43.8712 41.5465C45.9607 39.9514 47.5655 37.8434 48.6857 35.2225C49.8058 32.5979 50.3659 29.7664 50.3659 26.7278ZM44.4411 28.4961C44.3901 29.8934 44.2279 31.2844 43.956 32.6559C43.6837 34.0978 43.2439 35.503 42.6456 36.8429C42.0561 38.1516 41.2967 39.2144 40.3672 40.0315C39.4377 40.8486 38.3074 41.2568 36.9763 41.2561C35.7981 41.2191 34.8295 40.8203 34.0704 40.0598C33.3113 39.2993 32.7128 38.3205 32.2749 37.1235C31.8251 35.871 31.5193 34.5714 31.3636 33.2497C31.1976 31.9559 31.1108 30.6532 31.1036 29.3488C31.1413 27.0323 31.4643 24.9243 32.0726 23.0248C32.6809 21.1252 33.5274 19.6139 34.612 18.4909C35.6952 17.3707 36.9962 16.8292 38.5151 16.8661C39.7694 16.8661 40.7844 17.2366 41.5602 17.9776C42.336 18.7186 42.9435 19.6778 43.3829 20.8552C43.8286 22.0684 44.1254 23.3312 44.2671 24.6158C44.4176 25.9035 44.4757 27.2002 44.4411 28.4961Z" fill="#F3F6F9"/>
<path d="M82.0619 8.76621C82.6912 9.31142 83.5337 9.58367 84.5893 9.58294C85.6449 9.58222 86.4874 9.30164 87.1167 8.7412C87.7468 8.17931 88.0618 7.4387 88.0618 6.51938C88.0618 5.53263 87.7468 4.74998 87.1167 4.17141C86.4867 3.59285 85.6442 3.30284 84.5893 3.30139C83.5344 3.30139 82.6919 3.5914 82.0619 4.17141C81.4319 4.75143 81.1172 5.53408 81.1179 6.51938C81.1179 7.47278 81.4326 8.22172 82.0619 8.76621Z" fill="#F3F6F9"/>
<path d="M87.0914 14.74L64.6253 14.6313C64.737 13.1414 64.8932 11.7123 65.0941 10.3442C65.272 9.06437 65.5383 7.79836 65.8912 6.5553C66.2146 5.45327 66.642 4.56041 67.1734 3.87672C67.411 3.55275 67.719 3.287 68.0744 3.09954C68.4297 2.91209 68.823 2.80783 69.2245 2.79463C69.4902 2.7573 69.7603 2.76687 70.0227 2.82291C70.2881 2.88019 70.478 2.92767 70.5926 2.96538C70.515 3.87672 70.7144 4.61769 71.1907 5.18828C71.4125 5.46321 71.6946 5.68326 72.0153 5.83133C72.3359 5.9794 72.6864 6.05149 73.0395 6.04199C73.6855 6.04199 74.2079 5.89952 74.6066 5.61459C74.9935 5.34526 75.2911 4.96658 75.4614 4.52706C75.6182 4.15687 75.7052 3.76088 75.7181 3.35906C75.7181 2.29691 75.3095 1.46314 74.4925 0.857749C73.6754 0.25236 72.5081 -0.0325721 70.9906 0.00295379C68.4842 0.0428297 66.4332 0.708758 64.8374 2.00074C63.2416 3.29272 62.0261 5.04944 61.1909 7.27089C60.376 9.43579 59.7786 11.882 59.3987 14.6095L53.6348 14.5823L52.656 18.4159H58.9126C58.8183 19.4164 58.7244 20.4872 58.6309 21.6284C58.5163 23.0154 58.4021 24.4491 58.2883 25.9296C58.1745 27.4101 58.0701 28.8536 57.9751 30.2601C57.8809 31.6659 57.7765 32.9764 57.6619 34.1915C57.3958 37.0793 57.1783 39.8234 57.0094 42.4241C56.8405 45.0247 56.5918 47.3422 56.2633 49.3766C55.9393 51.4067 55.4738 53.0017 54.867 54.1618C54.2601 55.3218 53.4053 55.9018 52.3026 55.9018C51.7719 55.9018 51.335 55.7876 50.9921 55.5592C51.0313 54.724 50.8224 54.0403 50.3657 53.5082C49.9089 52.976 49.3014 52.6911 48.543 52.6534C47.897 52.6149 47.3746 52.7574 46.9759 53.0808C46.63 53.3618 46.3472 53.7126 46.146 54.1102C45.9447 54.5078 45.8295 54.9434 45.8079 55.3885C45.8079 56.4521 46.216 57.2782 47.0324 57.867C47.8488 58.4557 49.036 58.75 50.5941 58.75C52.6451 58.75 54.3544 58.3038 55.7218 57.4113C57.0891 56.5188 58.2097 55.2939 59.0833 53.7365C59.9533 52.1785 60.6464 50.3743 61.1626 48.3239C61.6988 46.1462 62.1077 43.9392 62.3872 41.7139C62.6917 39.3598 62.9578 36.9672 63.1854 34.5363C63.337 33.2834 63.47 31.9353 63.5846 30.4918C63.6991 29.0482 63.8035 27.5667 63.8978 26.047C63.9913 24.5288 64.0863 23.0665 64.1827 21.6599C64.2588 20.5166 64.3168 19.4363 64.3567 18.4191H83.0067V39.1452H73.0015V42.8221H96.5899V39.1452H87.0914V14.74Z" fill="#F3F6F9"/>
<path d="M118.083 16.7574C116.245 15.0717 113.76 14.2293 110.629 14.23C107.735 14.23 105.327 14.9448 103.403 16.3746C101.48 17.8043 100.348 19.7274 100.008 22.1439H104.093C104.264 20.8157 104.936 19.7604 106.11 18.9781C107.284 18.1958 108.756 17.8043 110.527 17.8036C112.534 17.8036 114.083 18.314 115.173 19.3348C116.262 20.3557 116.806 21.8024 116.804 23.6751V26.6365H107.871C105.043 26.6365 102.796 27.3767 101.128 28.8572C99.4607 30.3377 98.627 32.3547 98.627 34.9082C98.627 37.4958 99.4778 39.5465 101.179 41.0603C102.881 42.5742 105.213 43.3315 108.174 43.3322C110.829 43.3322 112.957 42.7195 114.557 41.4943C115.829 40.5198 116.595 39.2753 116.854 37.7608V42.8221H120.836V23.5729C120.839 20.7142 119.921 18.4423 118.083 16.7574ZM114.663 38.3796C113.233 39.5034 111.395 40.0653 109.148 40.0653C107.139 40.0653 105.556 39.5802 104.4 38.6101C103.243 37.6401 102.663 36.3379 102.659 34.7037C102.659 33.1718 103.136 31.9635 104.089 31.079C105.041 30.1945 106.318 29.7519 107.918 29.7512H116.802V33.9925C116.805 35.7949 116.092 37.2573 114.663 38.3796Z" fill="#F3F6F9"/>
</svg>
